<svg width="25" height="29" viewBox="0 0 25 29" fill="none" xmlns="http://www.w3.org/2000/svg">
<g filter="url(#filter0_d)">
<path d="M12.2036 6.74492C8.74026 6.74492 5.9467 9.73216 5.9467 13.4356C5.9467 17.1391 8.74026 20.1264 12.2036 20.1264C15.667 20.1264 18.4605 17.1391 18.4605 13.4356C18.4605 9.73216 15.667 6.74492 12.2036 6.74492ZM12.2036 17.7855C9.96551 17.7855 8.13581 15.8347 8.13581 13.4356C8.13581 11.0365 9.96006 9.0858 12.2036 9.0858C14.4472 9.0858 16.2714 11.0365 16.2714 13.4356C16.2714 15.8347 14.4417 17.7855 12.2036 17.7855ZM20.1759 6.47124C20.1759 7.33887 19.5224 8.03182 18.7165 8.03182C17.9051 8.03182 17.2571 7.33305 17.2571 6.47124C17.2571 5.60942 17.9105 4.91065 18.7165 4.91065C19.5224 4.91065 20.1759 5.60942 20.1759 6.47124ZM24.3199 8.05511C24.2274 5.96463 23.7808 4.11289 22.3487 2.58724C20.9219 1.06159 19.1902 0.584102 17.2353 0.479287C15.2204 0.357002 9.18135 0.357002 7.1665 0.479287C5.217 0.578279 3.48532 1.05577 2.05314 2.58142C0.620969 4.10706 0.179881 5.9588 0.0818609 8.04929C-0.0324953 10.2038 -0.0324953 16.6616 0.0818609 18.8162C0.174435 20.9066 0.620969 22.7584 2.05314 24.284C3.48532 25.8097 5.21155 26.2872 7.1665 26.392C9.18135 26.5143 15.2204 26.5143 17.2353 26.392C19.1902 26.293 20.9219 25.8155 22.3487 24.284C23.7754 22.7584 24.2219 20.9066 24.3199 18.8162C24.4343 16.6616 24.4343 10.2097 24.3199 8.05511ZM21.717 21.1279C21.2922 22.2692 20.4699 23.1485 19.3972 23.6086C17.7907 24.2899 13.9789 24.1326 12.2036 24.1326C10.4284 24.1326 6.61106 24.284 5.01007 23.6086C3.94274 23.1544 3.12047 22.2751 2.69027 21.1279C2.05314 19.4101 2.20017 15.334 2.20017 13.4356C2.20017 11.5373 2.05859 7.45534 2.69027 5.74335C3.11502 4.60203 3.9373 3.72274 5.01007 3.26272C6.6165 2.58142 10.4284 2.73864 12.2036 2.73864C13.9789 2.73864 17.7962 2.58724 19.3972 3.26272C20.4645 3.71692 21.2868 4.5962 21.717 5.74335C22.3541 7.46116 22.2071 11.5373 22.2071 13.4356C22.2071 15.334 22.3541 19.4159 21.717 21.1279Z" fill="white"/>
</g>
<defs>
<filter id="filter0_d" x="-4.00391" y="0.387573" width="32.4096" height="34.0961" filterUnits="userSpaceOnUse" color-interpolation-filters="sRGB">
<feFlood flood-opacity="0" result="BackgroundImageFix"/>
<feColorMatrix in="SourceAlpha" type="matrix" values="0 0 0 0 0 0 0 0 0 0 0 0 0 0 0 0 0 0 127 0" result="hardAlpha"/>
<feOffset dy="4"/>
<feGaussianBlur stdDeviation="2"/>
<feComposite in2="hardAlpha" operator="out"/>
<feColorMatrix type="matrix" values="0 0 0 0 0 0 0 0 0 0 0 0 0 0 0 0 0 0 0.25 0"/>
<feBlend mode="normal" in2="BackgroundImageFix" result="effect1_dropShadow"/>
<feBlend mode="normal" in="SourceGraphic" in2="effect1_dropShadow" result="shape"/>
</filter>
</defs>
</svg>
