<svg width="30" height="19" viewBox="0 0 30 19" fill="none" xmlns="http://www.w3.org/2000/svg">
<path d="M28.7687 2.08218C28.9708 1.3868 28.7687 0.875 27.7965 0.875H24.5793C23.76 0.875 23.3831 1.31448 23.181 1.80403C23.181 1.80403 21.5423 5.87061 19.2264 8.50749C18.4781 9.26963 18.134 9.5144 17.7243 9.5144C17.5222 9.5144 17.2109 9.26963 17.2109 8.57425V2.08218C17.2109 1.24772 16.9815 0.875 16.3042 0.875H11.2462C10.7328 0.875 10.4269 1.26441 10.4269 1.62601C10.4269 2.41596 11.5849 2.59954 11.7051 4.82476V9.65348C11.7051 10.7105 11.5193 10.9052 11.1097 10.9052C10.0173 10.9052 7.36267 6.82189 5.78958 2.14894C5.47277 1.24216 5.16143 0.875 4.33665 0.875H1.11946C0.201825 0.875 0.0161133 1.31448 0.0161133 1.80403C0.0161133 2.67186 1.10854 6.98322 5.10135 12.6798C7.7614 16.5683 11.5084 18.6767 14.9168 18.6767C16.9651 18.6767 17.2163 18.2094 17.2163 17.4028C17.2163 13.6867 17.0306 13.3362 18.0575 13.3362C18.5327 13.3362 19.352 13.581 21.2638 15.4557C23.4486 17.6809 23.8091 18.6767 25.0326 18.6767H28.2498C29.1675 18.6767 29.6317 18.2094 29.3641 17.286C28.7523 15.3445 24.6175 11.3502 24.4318 11.0832C23.9566 10.4601 24.0931 10.182 24.4318 9.62566C24.4373 9.6201 28.3645 3.9903 28.7687 2.08218Z" fill="white"/>
</svg>
